<?xml version="1.0" standalone="no"?>
<!DOCTYPE svg PUBLIC "-//W3C//DTD SVG 1.0//EN" "http://www.w3.org/TR/2001/REC-SVG-20010904/DTD/svg10.dtd">
<svg xmlnsxmlns="http://www.w3.org/2000/svg" xmlns:xlink="http://www.w3.org/1999/xlink" width="36" height="36" preserveAspectRatio="xMidYMid meet" style="-ms-transform: rotate(360deg); -webkit-transform: rotate(360deg); transform: rotate(360deg);" viewBox="0 0 128 128">

<g transform="matrix(1 0 0 1 0 0)">
    <path d="M30.674 32.577L29.640999 34.864998C 28.355999 37.765 26.932999 41.318996 26.412998 43.587997C 26.225998 44.395996 26.110998 45.387997 26.112999 46.507996L26.112999 46.507996L26.172998 47.877995C 28.03974 48.56318 30.012482 48.914536 32.001 48.915993C 33.814323 48.91305 35.61548 48.619667 37.336 48.046993C 36.933826 47.684986 36.56162 47.29104 36.223 46.86899C 33.949 43.96899 32.68 39.71899 30.673 32.57399M22.28 18.17C 17.774258 21.3347 15.0901985 26.49391 15.085 32C 15.095 37.635002 17.852 42.618 22.085 45.7C 23.123 41.374 25.727 37.413002 29.63 29.474C 29.397999 28.837002 29.133999 28.140001 28.838 27.408C 27.758 24.695002 26.196 21.545002 24.803 20.108002C 24.102999 19.363 23.230999 18.708002 22.279 18.168001" stroke="none" fill="#91DC47" fill-rule="nonzero" />
    <path d="M46.74 51.405C 44.5 51.125 42.640003 50.785 41.032 50.204998C 38.312 51.554996 35.247 52.318996 32.002003 52.318996C 20.775002 52.318996 11.674004 43.218994 11.672003 31.988997C 11.666662 26.13331 14.193901 20.56142 18.603003 16.707996C 17.447807 16.423588 16.262691 16.278553 15.073003 16.275997C 9.1 16.342 2.813 19.643 0.2 28.558C -0.054 29.856 0.005 30.837 0.005 32C 0.005 49.673 14.332 64 32.003 64C 42.824997 64 52.385998 58.623 58.175 50.398C 55.045 51.177998 52.031998 51.552 49.453 51.559998C 48.486 51.559998 47.579 51.508 46.739 51.406" stroke="none" fill="#63B132" fill-rule="nonzero" />
    <path d="M40.727 45.205C 40.925003 45.303 41.372 45.463 41.997 45.640003C 46.346947 42.45635 48.9196 37.390514 48.924 32L48.924 32L48.922 32C 48.905487 22.66219 41.33981 15.096512 32.002 15.08C 30.196638 15.083439 28.403387 15.375111 26.689999 15.944C 30.124998 19.86 31.777998 25.456001 33.376 31.578C 33.382 31.589998 33.89 33.285 34.762 35.534C 35.628002 37.78 36.862 40.56 38.209 42.586C 39.093 43.944 40.065 44.919 40.727 45.205997" stroke="none" fill="#90B4FE" fill-rule="nonzero" />
    <path d="M32.003 0C 21.284998 0 11.802998 5.276 5.996998 13.366C 9.018998 11.473001 12.104998 10.791 14.796998 10.816C 18.516998 10.826 21.440998 11.98 22.843998 12.769C 23.183998 12.964 23.503998 13.175 23.819998 13.391C 26.397278 12.254742 29.183357 11.668913 31.999998 11.671C 43.227997 11.672 52.329998 20.771 52.332 32.001L52.332 32.001L52.33 32.001C 52.33 37.661 50.015003 42.781 46.282 46.466C 47.198 46.569 48.175003 46.633 49.182003 46.628C 52.726 46.629997 56.556004 45.848 59.428 43.432C 61.301003 41.855 62.868 39.545 63.728 36.082C 63.903355 34.729023 63.992867 33.36629 63.996002 32.002C 64 14.328 49.676 0 32.003 0" stroke="none" fill="#5881D8" fill-rule="nonzero" />
</g>
</svg>
